<svg width="50" height="50" viewBox="0 0 50 50" fill="none" xmlns="http://www.w3.org/2000/svg">
<rect width="50" height="50" rx="19" fill="#F1F5F9"/>
<path opacity="0.4" d="M34.2494 29.0103C33.9577 29.7915 33.3432 30.3853 32.5411 30.6561C31.4161 31.0311 30.2598 31.3123 29.0932 31.5103C28.9786 31.5311 28.864 31.5519 28.7494 31.5623C28.5619 31.5936 28.3744 31.6144 28.1869 31.6353C27.9577 31.6665 27.7182 31.6873 27.4786 31.7082C26.8223 31.7603 26.1765 31.7915 25.5202 31.7915C24.8536 31.7915 24.1869 31.7603 23.5307 31.6978C23.2494 31.6769 22.9786 31.6457 22.7078 31.604C22.5515 31.5832 22.3953 31.5623 22.2494 31.5415C22.1349 31.5207 22.0203 31.5103 21.9057 31.4894C20.7494 31.3019 19.6036 31.0207 18.489 30.6457C17.6557 30.3644 17.0203 29.7707 16.739 29.0103C16.4578 28.2603 16.5619 27.3853 17.0099 26.6353L18.1869 24.6769C18.4369 24.2498 18.6661 23.4269 18.6661 22.9269V20.9894C18.6661 17.2082 21.739 14.1353 25.5202 14.1353C29.2911 14.1353 32.364 17.2082 32.364 20.9894V22.9269C32.364 23.4269 32.5932 24.2498 32.8536 24.6769L34.0307 26.6353C34.4577 27.3644 34.5411 28.2186 34.2494 29.0103Z" fill="#475569"/>
<path d="M25.5007 23.2085C25.0632 23.2085 24.709 22.8543 24.709 22.4168V19.1877C24.709 18.7502 25.0632 18.396 25.5007 18.396C25.9382 18.396 26.2923 18.7502 26.2923 19.1877V22.4168C26.2819 22.8543 25.9277 23.2085 25.5007 23.2085Z" fill="#475569"/>
<path d="M28.4479 32.8439C28.0104 34.0522 26.8542 34.9168 25.5 34.9168C24.6771 34.9168 23.8646 34.5835 23.2917 33.9897C22.9583 33.6772 22.7083 33.2606 22.5625 32.8335C22.6979 32.8543 22.8333 32.8647 22.9792 32.8856C23.2187 32.9168 23.4688 32.9481 23.7188 32.9689C24.3125 33.021 24.9167 33.0522 25.5208 33.0522C26.1146 33.0522 26.7083 33.021 27.2917 32.9689C27.5104 32.9481 27.7292 32.9377 27.9375 32.9064C28.1042 32.8856 28.2708 32.8647 28.4479 32.8439Z" fill="#475569"/>
<circle cx="44" cy="5" r="4.5" fill="#4ADE80" stroke="white"/>
</svg>
