<svg width="50" height="50" viewBox="0 0 50 50" fill="none" xmlns="http://www.w3.org/2000/svg">
<rect width="50" height="50" rx="19" fill="#F1F5F9"/>
<path opacity="0.4" d="M32.1507 18.194L27.1961 15.3286C26.2473 14.7824 24.7619 14.7824 23.8132 15.3286L18.8107 18.2132C16.8269 19.5549 16.7119 19.7561 16.7119 21.8932V27.0969C16.7119 29.234 16.8269 29.4448 18.849 30.8057L23.8036 33.6711C24.2828 33.949 24.8961 34.0832 25.4999 34.0832C26.1036 34.0832 26.7169 33.949 27.1865 33.6711L32.189 30.7865C34.1728 29.4448 34.2878 29.2436 34.2878 27.1065V21.8932C34.2878 19.7561 34.1728 19.5549 32.1507 18.194Z" fill="#475569"/>
<path d="M25.5003 27.6144C27.2204 27.6144 28.6149 26.2199 28.6149 24.4998C28.6149 22.7797 27.2204 21.3853 25.5003 21.3853C23.7802 21.3853 22.3857 22.7797 22.3857 24.4998C22.3857 26.2199 23.7802 27.6144 25.5003 27.6144Z" fill="#475569"/>
</svg>
